<?xml version="1.0" standalone="no"?><!DOCTYPE svg PUBLIC "-//W3C//DTD SVG 1.1//EN" "http://www.w3.org/Graphics/SVG/1.1/DTD/svg11.dtd"><svg t="1692862733997" class="icon" viewBox="0 0 1024 1024" version="1.1" xmlns="http://www.w3.org/2000/svg" p-id="2851" xmlns:xlink="http://www.w3.org/1999/xlink" width="200" height="200"><path d="M513.753 64.947c-238.627 0-432.77 196.2-432.77 437.351 0 241.153 194.143 437.353 432.77 437.353 238.627 0 432.772-196.202 432.772-437.353 0-241.15-194.143-437.351-432.772-437.351z m0 820.035c-208.804 0-378.675-171.665-378.675-382.684 0-211.013 169.871-382.68 378.675-382.68S892.43 291.285 892.43 502.298c0 211.02-169.871 382.684-378.677 382.684z m216.385-410.017H362.666L478.782 357.62c10.563-10.677 10.563-27.976 0-38.654a26.849 26.849 0 0 0-38.251 0l-162.288 164.01c-10.567 10.675-10.567 27.975 0 38.651l162.288 164.012c5.283 5.337 12.205 8.004 19.124 8.004 6.924 0 13.841-2.667 19.127-8.004 10.563-10.679 10.563-27.974 0-38.654l-116.116-117.35h367.472c14.953 0 27.047-12.225 27.047-27.336 0-15.107-12.092-27.333-27.047-27.333z" p-id="2852"></path></svg>