<?xml version="1.0" standalone="no"?><!DOCTYPE svg PUBLIC "-//W3C//DTD SVG 1.1//EN" "http://www.w3.org/Graphics/SVG/1.1/DTD/svg11.dtd"><svg t="1692862778524" class="icon" viewBox="0 0 1024 1024" version="1.1" xmlns="http://www.w3.org/2000/svg" p-id="4249" xmlns:xlink="http://www.w3.org/1999/xlink" width="200" height="200"><path d="M510.247 959.053c238.62699999 0 432.77-196.19999999 432.77-437.351 0-241.153-194.143-437.353-432.77-437.353-238.62699999 0-432.772 196.202-432.772 437.35300001 0 241.15 194.143 437.351 432.772 437.35099999z m0-820.035c208.804 0 378.675 171.665 378.675 382.684 0 211.013-169.871 382.68-378.675 382.68S131.57 732.715 131.57 521.702c0-211.02000001 169.871-382.684 378.677-382.684z m-216.385 410.01700001L661.334 549.035 545.218 666.38c-10.563 10.677-10.563 27.976 0 38.654a26.849 26.849 0 0 0 38.251-1e-8l162.288-164.00999999c10.567-10.675 10.567-27.975 0-38.651l-162.288-164.012c-5.283-5.33700001-12.205-8.004-19.12399999-8.004-6.924 0-13.841 2.667-19.12700001 8.004-10.563 10.67900001-10.563 27.974 0 38.654l116.116 117.35-367.472 0c-14.953 0-27.047 12.225-27.047 27.336 0 15.107 12.092 27.333 27.047 27.333z" p-id="4250"></path></svg>