<?xml version="1.0" standalone="no"?><!DOCTYPE svg PUBLIC "-//W3C//DTD SVG 1.1//EN" "http://www.w3.org/Graphics/SVG/1.1/DTD/svg11.dtd"><svg class="icon" width="200px" height="200.00px" viewBox="0 0 1024 1024" version="1.1" xmlns="http://www.w3.org/2000/svg"><path fill="#000000" d="M859.382496 864.714934 164.617504 864.714934c-55.904586 0-101.488325-45.583739-101.488325-101.488325L63.129179 260.773392c0-55.904586 45.583739-101.488325 101.488325-101.488325l694.764992 0c55.904586 0 101.488325 45.583739 101.488325 101.488325l0 502.453217C960.870821 819.131194 915.287082 864.714934 859.382496 864.714934zM164.617504 223.44633c-20.641693 0-37.499076 16.685369-37.499076 37.327062l0 502.453217c0 20.641693 16.685369 37.327062 37.499076 37.327062l694.764992 0c20.641693 0 37.499076-16.685369 37.499076-37.327062L896.881572 260.773392c0-20.641693-16.685369-37.327062-37.499076-37.327062L164.617504 223.44633 164.617504 223.44633z"  /><path fill="#000000" d="M800.55367 415.758105 223.44633 415.758105c-17.717453 0-31.994625-14.449185-31.994625-31.994625 0-17.717453 14.449185-31.994625 31.994625-31.994625l577.279355 0c17.717453 0 31.994625 14.449185 31.994625 31.994625C832.720309 401.480934 818.271124 415.758105 800.55367 415.758105z"  /><path fill="#000000" d="M319.602217 736.392407l-96.155888 0c-17.717453 0-31.994625-14.277171-31.994625-31.994625 0-17.717453 14.449185-31.994625 31.994625-31.994625l96.155888 0c17.717453 0 31.994625 14.277171 31.994625 31.994625C351.596842 722.115236 337.319671 736.392407 319.602217 736.392407z"  /></svg>