<?xml version="1.0" standalone="no"?><!DOCTYPE svg PUBLIC "-//W3C//DTD SVG 1.1//EN" "http://www.w3.org/Graphics/SVG/1.1/DTD/svg11.dtd"><svg t="1692696998516" class="icon" viewBox="0 0 1024 1024" version="1.1" xmlns="http://www.w3.org/2000/svg" p-id="5387" xmlns:xlink="http://www.w3.org/1999/xlink" width="200" height="200"><path d="M120.759083 892.5321V127.647783c0-4.252196 3.447422-7.713952 7.699618-7.713952h643.527285c4.252196 0 7.713952 3.461756 7.713952 7.713952V436.239653h55.82018V127.647783c0-35.024045-28.495752-63.534132-63.534132-63.534132H128.458701c-35.024045 0-63.519798 28.510087-63.519798 63.534132v764.884317c0 35.024045 28.495752 63.534132 63.519798 63.534133h360.269409v-55.820181H128.458701c-4.252196 0-7.699618-3.461756-7.699618-7.713952z" fill="#3E3A39" p-id="5388"></path><path d="M287.660582 552.786472c-15.41357 0-27.91009 12.48321-27.91009 27.91009s12.49652 27.91009 27.91009 27.91009h111.449918c15.41357 0 27.91009-12.48321 27.91009-27.91009s-12.49652-27.91009-27.91009-27.91009h-111.449918zM636.53722 429.699074c0-15.42688-12.49652-27.91009-27.91009-27.91009H287.660582c-15.41357 0-27.91009 12.48321-27.91009 27.91009s12.49652 27.91009 27.91009 27.91009h320.966548c15.41357 0 27.91009-12.48321 27.91009-27.91009zM608.62713 256.295903H287.660582c-15.41357 0-27.91009 12.48321-27.91009 27.91009s12.49652 27.91009 27.91009 27.91009h320.966548c15.41357 0 27.91009-12.48321 27.91009-27.91009s-12.49652-27.91009-27.91009-27.91009zM820.392212 718.748044h-55.643048v-90.271873c0-15.42688-12.49652-27.91009-27.91009-27.91009s-27.91009 12.48321-27.91009 27.91009v118.181963c0 15.42688 12.49652 27.91009 27.91009 27.91009H820.393236c15.41357 0 27.91009-12.48321 27.91009-27.91009-0.001024-15.42688-12.497544-27.91009-27.911114-27.91009z" fill="#3E3A39" p-id="5389"></path><path d="M738.670805 515.125922c-121.258739 0-219.559921 98.300158-219.559921 219.559921 0 121.259763 98.300158 219.560945 219.559921 219.560945 121.259763 0 219.560945-98.300158 219.560945-219.560945 0-121.259763-98.301182-219.559921-219.560945-219.559921z m0 383.299662c-90.286208 0-163.739741-73.453533-163.739741-163.740765 0-90.286208 73.453533-163.739741 163.739741-163.739741 90.286208 0 163.739741 73.453533 163.739741 163.739741 0.001024 90.287232-73.452509 163.740765-163.739741 163.740765z" fill="#3E3A39" p-id="5390"></path></svg>