<?xml version="1.0" standalone="no"?><!DOCTYPE svg PUBLIC "-//W3C//DTD SVG 1.1//EN" "http://www.w3.org/Graphics/SVG/1.1/DTD/svg11.dtd"><svg t="1693897689877" class="icon" viewBox="0 0 1024 1024" version="1.1" xmlns="http://www.w3.org/2000/svg" p-id="2561" xmlns:xlink="http://www.w3.org/1999/xlink" width="200" height="200"><path d="M512 1024C229.233778 1024 0 794.766222 0 512S229.233778 0 512 0s512 229.233778 512 512-229.233778 512-512 512z m284.444444-595.228444a72.490667 72.490667 0 0 0-20.807111-50.432 71.253333 71.253333 0 0 0-100.892444 0 66.816 66.816 0 0 0-20.807111 50.432 68.707556 68.707556 0 0 0 20.807111 50.432c2.474667 3.015111 5.461333 5.575111 8.817778 7.566222a78.833778 78.833778 0 0 1-93.312 13.866666 104.661333 104.661333 0 0 1-49.180445-58.638222 189.084444 189.084444 0 0 1 5.034667-51.057778 71.864889 71.864889 0 0 0 37.205333-63.047111 70.599111 70.599111 0 0 0-20.807111-50.432 70.001778 70.001778 0 0 0-100.892444 0 71.864889 71.864889 0 0 0-20.807111 50.432 72.490667 72.490667 0 0 0 20.807111 50.446223c5.632 5.304889 12.003556 9.770667 18.915555 13.226666a131.100444 131.100444 0 0 1 3.797334 48.554667 105.287111 105.287111 0 0 1-49.820445 59.875555 81.351111 81.351111 0 0 1-95.217778-14.492444 71.864889 71.864889 0 0 0 30.264889-58.624 71.253333 71.253333 0 0 0-70.613333-69.347556 72.533333 72.533333 0 0 0-50.446222 20.807112 71.224889 71.224889 0 0 0 0 100.864 70.627556 70.627556 0 0 0 30.890666 18.275555l59.278223 247.125333a28.373333 28.373333 0 0 0 27.107555 21.432889H658.346667a27.733333 27.733333 0 0 0 27.121777-21.432889l59.264-247.125333A71.864889 71.864889 0 0 0 796.444444 428.771556z" fill="#1296db" p-id="2562"></path></svg>