<?xml version="1.0" standalone="no"?><!DOCTYPE svg PUBLIC "-//W3C//DTD SVG 1.1//EN" "http://www.w3.org/Graphics/SVG/1.1/DTD/svg11.dtd"><svg t="1693447982636" class="icon" viewBox="0 0 1024 1024" version="1.1" xmlns="http://www.w3.org/2000/svg" p-id="2553" xmlns:xlink="http://www.w3.org/1999/xlink" width="200" height="200"><path d="M323.190548 365.252923l-146.235077 357.376h581.395692l-145.998769-358.912-144.699077 354.185846-144.384-352.649846h-0.078769z m569.304615 271.832615h116.066462c-2.166154 8.704-4.568615 17.329231-7.207385 25.915077h-98.500923l-10.358154-25.915077z m-19.534769-48.64h145.329231c-1.260308 8.664615-2.796308 17.250462-4.529231 25.836308h-130.441846l-10.358154-25.836308z m-19.574154-48.64h169.865846c-0.472615 8.625231-1.181538 17.250462-1.969231 25.836308h-157.459692l-10.436923-25.836308z m-19.534769-48.718769h189.715692c0.315077 6.971077 0.433231 13.942154 0.433231 20.952616v4.923077h-179.830154l-10.358154-25.875693h0.039385z m-19.495385-48.600615h204.957539c1.181538 8.507077 2.126769 17.132308 2.835692 25.836308H824.71424l-10.358154-25.915077v0.078769z m-19.534769-48.718769h215.433846c2.048 8.585846 3.820308 17.211077 5.435077 25.915077h-210.550154l-10.397538-25.915077h0.078769zM0.000394 512.039385C-0.275298 256.905846 187.746855 40.566154 440.71424 5.041231c252.928-35.564308 493.371077 120.556308 563.593846 365.883077h-218.624l-127.606154-317.715693-143.084307 355.446154L369.03424 56.398769 98.461932 722.589538l110.434462 155.293539h610.934154l105.668923-158.444308-13.508923-33.673846h81.723077a512.078769 512.078769 0 0 1-569.974154 330.515692A511.606154 511.606154 0 0 1 0.000394 512.039385z" fill="#C7162E" p-id="2554"></path></svg>