<?xml version="1.0" standalone="no"?><!DOCTYPE svg PUBLIC "-//W3C//DTD SVG 1.1//EN" "http://www.w3.org/Graphics/SVG/1.1/DTD/svg11.dtd"><svg class="icon" width="200px" height="200.00px" viewBox="0 0 1024 1024" version="1.1" xmlns="http://www.w3.org/2000/svg"><path fill="#000000" d="M157.2864 924.17536c-51.43552 0-93.2864-41.85088-93.2864-93.2864V193.11104c0-51.43552 41.84576-93.2864 93.2864-93.2864h709.4272c51.43552 0 93.2864 41.84576 93.2864 93.2864v637.77792c0 51.43552-41.85088 93.2864-93.2864 93.2864H157.2864z m-35.32288-256.32256a2.58048 2.58048 0 0 0-2.58048 2.58048v160.45568c0 20.89984 17.00352 37.90336 37.90336 37.90336h709.4272c20.89984 0 37.90336-17.00352 37.90336-37.90336v-160.45568a2.5856 2.5856 0 0 0-2.5856-2.58048H121.96352z m0-256.32256a2.58048 2.58048 0 0 0-2.58048 2.58048v195.77344c0 1.42848 1.15712 2.5856 2.58048 2.5856h780.06784a2.5856 2.5856 0 0 0 2.5856-2.5856V414.11072a2.58048 2.58048 0 0 0-2.5856-2.58048H121.96352z m35.32288-256.32256c-20.89984 0-37.90336 17.00352-37.90336 37.90336v160.45568c0 1.42848 1.15712 2.58048 2.58048 2.58048h780.06784a2.5856 2.5856 0 0 0 2.5856-2.58048V193.11104c0-20.89984-17.00352-37.90336-37.90336-37.90336H157.2864zM204.2368 515.75808a30.13632 30.13632 0 0 1 11.50976-27.65312c8.43264-6.4768 19.69664-7.91552 29.48608-3.7632s16.64 13.2608 17.96608 23.89504a30.1312 30.1312 0 0 1-11.50976 27.65312 29.47584 29.47584 0 0 1-29.48096 3.76832 29.94688 29.94688 0 0 1-17.9712-23.90016zM310.23616 515.75808a30.13632 30.13632 0 0 1 11.50976-27.65312c8.43264-6.4768 19.69664-7.91552 29.48608-3.7632s16.64 13.2608 17.96608 23.89504a30.1312 30.1312 0 0 1-11.50976 27.65312 29.47584 29.47584 0 0 1-29.48096 3.76832 29.94688 29.94688 0 0 1-17.9712-23.90016zM204.2368 261.76a30.13632 30.13632 0 0 1 11.50976-27.65312c8.43264-6.4768 19.69664-7.91552 29.48608-3.7632s16.64 13.2608 17.96608 23.89504a30.1312 30.1312 0 0 1-11.50976 27.65312 29.47584 29.47584 0 0 1-29.48096 3.76832 29.95712 29.95712 0 0 1-17.9712-23.90016zM310.23616 261.76a30.13632 30.13632 0 0 1 11.50976-27.65312c8.43264-6.4768 19.69664-7.91552 29.48608-3.7632s16.64 13.2608 17.96608 23.89504a30.1312 30.1312 0 0 1-11.50976 27.65312 29.47584 29.47584 0 0 1-29.48096 3.76832 29.95712 29.95712 0 0 1-17.9712-23.90016zM204.2368 769.76128a30.12096 30.12096 0 0 1 11.50976-27.648 29.48608 29.48608 0 0 1 29.48608-3.76832 29.952 29.952 0 0 1 17.96608 23.90016 30.12096 30.12096 0 0 1-11.50976 27.648 29.47584 29.47584 0 0 1-29.48096 3.76832 29.95712 29.95712 0 0 1-17.9712-23.90016zM310.23616 769.76128a30.12096 30.12096 0 0 1 11.50976-27.648 29.48608 29.48608 0 0 1 29.48608-3.76832 29.952 29.952 0 0 1 17.96608 23.90016 30.12096 30.12096 0 0 1-11.50976 27.648 29.47584 29.47584 0 0 1-29.48096 3.76832 29.95712 29.95712 0 0 1-17.9712-23.90016zM598.99904 227.99872h189.99808a29.99808 29.99808 0 1 1 0 59.99616h-189.99808a29.99808 29.99808 0 1 1 0-59.99616zM598.99904 736h189.99808a29.99808 29.99808 0 1 1 0 59.99616h-189.99808a29.99808 29.99808 0 1 1 0-59.99616zM598.99904 482.00192h189.99808a29.99808 29.99808 0 1 1 0 59.99616h-189.99808a29.99808 29.99808 0 1 1 0-59.99616z" /></svg>