<?xml version="1.0" standalone="no"?><!DOCTYPE svg PUBLIC "-//W3C//DTD SVG 1.1//EN" "http://www.w3.org/Graphics/SVG/1.1/DTD/svg11.dtd"><svg class="icon" width="200px" height="200.00px" viewBox="0 0 1024 1024" version="1.1" xmlns="http://www.w3.org/2000/svg"><path fill="#597ef7" d="M496.64 588.8l-15.146667 15.146667 4.266667 4.266666-235.306667 235.093334h-30.08l-36.266666-36.266667v-30.293333l250.24-250.24 62.293333 62.293333zM853.333333 270.08l-106.666666 158.72-19.413334 9.173333-55.466666-4.693333-16.853334 6.186667-78.933333 78.293333-4.266667-4.266667-15.146666 15.146667-62.08-62.293333 93.226666-93.226667 6.186667-17.066667-4.906667-55.253333 9.386667-19.626667 158.72-106.666666 21.333333 21.333333-91.306666 90.026667v30.293333L711.253333 341.333333h30.08L832 248.96zM576.213333 517.76l-90.453333 90.453333-4.266667-4.266666 15.146667-15.146667-62.293333-62.293333-129.066667-128.853334-59.306667-29.226666-72.746666-133.12 30.08-30.08 133.12 72.746666 29.226666 59.306667 129.066667 129.066667 62.08 62.293333 15.146667-15.146667 4.266666 4.266667zM822.186667 763.733333v29.653334L761.386667 853.333333H731.733333L485.76 608.213333 576 517.76z" /></svg>