<?xml version="1.0" standalone="no"?><!DOCTYPE svg PUBLIC "-//W3C//DTD SVG 1.1//EN" "http://www.w3.org/Graphics/SVG/1.1/DTD/svg11.dtd"><svg class="icon" width="200px" height="200.00px" viewBox="0 0 1024 1024" version="1.1" xmlns="http://www.w3.org/2000/svg"><path fill="#597ef7" d="M800 64l-192 0c-52.48 0-98.56 25.6-128 65.28C450.56 89.6 404.48 64 352 64l-192 0C106.88 64 64 106.88 64 160l0 512C64 725.12 106.88 768 160 768l192 0C405.12 768 448 810.88 448 864 448 881.92 462.08 896 480 896 497.92 896 512 881.92 512 864 512 810.88 554.88 768 608 768l192 0c53.12 0 96-42.88 96-96l0-512C896 106.88 853.12 64 800 64zM448 736C421.12 716.16 387.84 704 352 704l-192 0C142.08 704 128 689.92 128 672l0-512C128 142.08 142.08 128 160 128l192 0C405.12 128 448 170.88 448 224L448 736zM832 672c0 17.92-14.08 32-32 32l-192 0c-35.84 0-69.12 12.16-96 32l0-512C512 170.88 554.88 128 608 128l192 0C817.92 128 832 142.08 832 160L832 672z" /></svg>