<?xml version="1.0" standalone="no"?><!DOCTYPE svg PUBLIC "-//W3C//DTD SVG 1.1//EN" "http://www.w3.org/Graphics/SVG/1.1/DTD/svg11.dtd"><svg t="1692766025510" class="icon" viewBox="0 0 1024 1024" version="1.1" xmlns="http://www.w3.org/2000/svg" p-id="3223" xmlns:xlink="http://www.w3.org/1999/xlink" width="200" height="200"><path d="M511.5 78C272.085 78 78 272.389 78 512.179c0 156.222 82.399 293.142 205.891 369.584 14.902 9.224 34.448 4.603 43.658-10.322 9.21-14.926 4.596-34.503-10.306-43.727-105.573-65.35-175.804-182.241-175.804-315.535 0-204.699 165.682-370.641 370.061-370.641S881.561 307.48 881.561 512.179c0 17.546 14.201 31.77 31.719 31.77 17.519 0 31.72-14.224 31.72-31.77C945 272.389 750.915 78 511.5 78z m46.407 212.188c0-17.546-14.202-31.769-31.72-31.769s-31.719 14.223-31.719 31.769v226.193l-154.144 95.541c-14.896 9.233-19.499 28.813-10.28 43.732 9.219 14.92 28.768 19.53 43.664 10.297l169.171-104.856a31.78 31.78 0 0 0 15.028-27.014V290.188z m324.131 326.604c12.388 12.407 12.388 32.522 0 44.929l-93.875 94.023 93.875 94.023c12.388 12.406 12.388 32.521 0 44.928-12.387 12.407-32.471 12.407-44.858 0l-93.876-94.023-93.875 94.023c-12.388 12.407-32.471 12.407-44.859 0-12.387-12.407-12.387-32.522 0-44.928l93.876-94.023-93.876-94.023c-12.387-12.407-12.387-32.522 0-44.929 12.388-12.406 32.471-12.406 44.859 0l93.875 94.023 93.876-94.023c12.387-12.406 32.471-12.406 44.858 0z" p-id="3224"></path></svg>