<?xml version="1.0" standalone="no"?><!DOCTYPE svg PUBLIC "-//W3C//DTD SVG 1.1//EN" "http://www.w3.org/Graphics/SVG/1.1/DTD/svg11.dtd"><svg class="icon" width="200px" height="186.01px" viewBox="0 0 1101 1024" version="1.1" xmlns="http://www.w3.org/2000/svg"><path fill="#000000" d="M52.224 575.488q-24.576 0-41.472-16.384t-16.896-40.96l0-76.8q0-24.576 16.896-41.472t41.472-16.896l741.376 0q-18.432 11.264-29.696 26.624t-11.264 30.72l0 40.96 1.024 31.744q-6.144 1.024-17.408 1.024l-69.632 0q-82.944 0-91.136 61.44l-523.264 0zM179.2 317.44q-23.552 0-40.96-16.896t-17.408-41.472l0-70.656q0-23.552 17.408-41.472t40.96-17.92l780.288 0q23.552 0 40.448 17.92t16.896 41.472l0 70.656q0 24.576-16.896 41.472t-40.448 16.896l-780.288 0zM711.68 770.048q18.432 0 28.16-2.048t14.336 1.024 5.632 14.336 1.024 37.888l0 7.168q0 4.096 1.024 7.168l-709.632 0q-24.576 0-41.472-17.408t-16.896-40.96l0-76.8q0-23.552 16.896-40.96t41.472-17.408l521.216 0 0 23.552q0 45.056 25.088 74.24t58.88 29.184l20.48 0q4.096 0 6.144 0.512t7.168 0.512l20.48 0zM1079.296 604.16q7.168 6.144 10.752 14.336t4.096 17.408-2.048 16.896-8.704 11.776q-16.384 14.336-44.544 31.744t-59.392 36.352-60.928 37.376-48.128 32.768q-23.552 20.48-34.816 21.504t-11.264-28.672l0-51.2q0-20.48-8.704-28.672t-25.088-8.192l-122.88 0q-14.336 0-25.088-7.68t-10.752-26.112l0-51.2q0-31.744 9.728-38.4t35.328-6.656l19.456 0q7.168 0 17.408 0.512t25.6 0.512l44.032 0q23.552 0 32.256-15.872t8.704-35.328l0-48.128q0-20.48 8.192-26.112t25.6 8.704q18.432 13.312 48.128 31.744t62.464 37.888 62.464 38.4 48.128 34.304z" /></svg>