<?xml version="1.0" standalone="no"?><!DOCTYPE svg PUBLIC "-//W3C//DTD SVG 1.1//EN" "http://www.w3.org/Graphics/SVG/1.1/DTD/svg11.dtd"><svg t="1692186398173" class="icon" viewBox="0 0 1024 1024" version="1.1" xmlns="http://www.w3.org/2000/svg" p-id="2964" xmlns:xlink="http://www.w3.org/1999/xlink" width="200" height="200"><path d="M648.093513 719.209284l-1.492609-40.940127 31.046263-26.739021c202.73892-174.805813 284.022131-385.860697 255.70521-561.306199-176.938111-28.786027-389.698834 51.857494-563.907604 254.511123l-26.31256 30.619803-40.38573-0.938211c-60.557271-1.407317-111.903014 12.79379-162.822297 47.0385l189.561318 127.084977-37.95491 68.489421c-9.126237 16.461343-0.554398 53.307457 29.084549 82.818465 29.5963 29.511008 67.380626 38.381369 83.287571 29.852176l68.318836-36.760822 127.639376 191.267156c36.163779-52.11337 50.450177-103.629696 48.189941-165.039887zM994.336107 16.105249l10.490908 2.686696 2.64405 10.405615c47.46496 178.089552-1.023503 451.492838-274.170913 686.898568 4.051367 111.263324-35.396151 200.222809-127.255561 291.741051l-15.779008 15.693715-145.934494-218.731157c-51.217805 27.59194-128.790816 10.405616-183.93205-44.522388-55.226525-55.013296-72.41285-132.287785-43.498885-184.529093L0.002773 430.325513l15.736362-15.65107c89.300652-88.959484 178.64395-128.108481 289.011709-125.549722C539.730114 15.806727 815.56422-31.061189 994.336107 16.105249zM214.93844 805.098259c28.572797 28.572797 22.346486 79.49208-12.537914 114.376479C156.428175 965.489735 34.034254 986.002445 34.034254 986.002445s25.331704-127.084978 66.612998-168.323627c34.8844-34.8844 85.633099-41.281295 114.291188-12.580559zM661.01524 298.549479a63.968948 63.968948 0 1 0 0 127.937897 63.968948 63.968948 0 0 0 0-127.937897z" fill="#d81e06" p-id="2965"></path></svg>