<?xml version="1.0" standalone="no"?><!DOCTYPE svg PUBLIC "-//W3C//DTD SVG 1.1//EN" "http://www.w3.org/Graphics/SVG/1.1/DTD/svg11.dtd"><svg class="icon" width="200px" height="200.00px" viewBox="0 0 1024 1024" version="1.1" xmlns="http://www.w3.org/2000/svg"><path fill="#000000" d="M127.936 128h768.128C919.594667 128 938.666667 146.986667 938.666667 170.666667v682.666666c0 23.573333-19.029333 42.666667-42.602667 42.666667H127.936A42.56 42.56 0 0 1 85.333333 853.333333V170.666667c0-23.573333 19.029333-42.666667 42.602667-42.666667zM128 853.333333h768.064L896 170.666667H127.936L128 853.333333z m53.973333-530.090666a21.333333 21.333333 0 1 0-22.613333 36.181333l341.333333 213.333333 11.306667 7.061334 11.306667-7.061334 341.333333-213.333333a21.333333 21.333333 0 1 0-22.613333-36.181333l-330.218667 206.378666L181.973333 323.242667z"  /></svg>