<?xml version="1.0" standalone="no"?><!DOCTYPE svg PUBLIC "-//W3C//DTD SVG 1.1//EN" "http://www.w3.org/Graphics/SVG/1.1/DTD/svg11.dtd"><svg t="1692697056867" class="icon" viewBox="0 0 1024 1024" version="1.1" xmlns="http://www.w3.org/2000/svg" p-id="6681" xmlns:xlink="http://www.w3.org/1999/xlink" width="200" height="200"><path d="M518.217143 432.64V73.142857A73.142857 73.142857 0 0 1 603.428571 1.097143 512 512 0 0 1 1022.902857 420.571429 73.142857 73.142857 0 0 1 950.857143 505.782857H591.36a73.142857 73.142857 0 0 1-73.142857-73.142857z" fill="#333333" p-id="6682"></path><path d="M493.714286 566.857143h340.297143a73.142857 73.142857 0 0 1 73.142857 85.577143A457.142857 457.142857 0 1 1 371.565714 117.76a73.142857 73.142857 0 0 1 85.577143 73.142857V530.285714a36.571429 36.571429 0 0 0 36.571429 36.571429z" fill="#333333" p-id="6683"></path></svg>