<?xml version="1.0" standalone="no"?><!DOCTYPE svg PUBLIC "-//W3C//DTD SVG 1.1//EN" "http://www.w3.org/Graphics/SVG/1.1/DTD/svg11.dtd"><svg class="icon" width="200px" height="200.00px" viewBox="0 0 1024 1024" version="1.1" xmlns="http://www.w3.org/2000/svg"><path fill="#000000" d="M197.9 196.9v709h0.2L513 768.1l314.9 137.8h0.3v-709H197.9zM769 815.6L536.6 713.9c-7.5-3.3-15.6-5-23.7-5s-16.2 1.7-23.7 5L257 815.6V256h512v559.6z"  /><path fill="#000000" d="M418.7 539.4C398.8 613.1 403.8 650 433.8 650c18.1 0 45.1-13.4 81.3-40.1 36.1 25 63.2 37.5 81.2 37.5 31.1 0 35.5-37 13.1-111.1 92.6-76.1 79.9-114.7-38.1-116-20.4-57.2-40.4-85.8-60-85.8-19.7 0-39.1 29.2-58 87.7-117.8 5-129.4 44.1-34.6 117.2z m36.8-68.1c20.6-0.8 38.4-14.4 44.8-34 4.4-13.7 8.4-24.2 11.9-32.4 3.7 8 8.1 18.4 12.8 31.8 6.9 19.4 25.2 32.5 45.9 32.7 15.8 0.2 27.7 1 36.5 2.2-6.5 6.8-15.8 15.6-29.2 26.5-15.3 12.6-21.6 33.3-15.9 52.3 4.7 15.6 7.6 27.6 9.3 36.9-7.5-4.2-16.9-10-28.5-18.1-8.4-5.8-18.2-8.7-28-8.7-10.3 0-20.6 3.2-29.3 9.6-11.3 8.4-20.5 14.5-27.9 18.8 1.5-9.3 4-21.4 8.3-37 5.1-19.2-1.7-39.6-17.5-51.8-13.7-10.6-23.3-19.1-29.9-25.7 8.8-1.1 20.8-2.4 36.7-3.1z"  /></svg>