<?xml version="1.0" standalone="no"?><!DOCTYPE svg PUBLIC "-//W3C//DTD SVG 1.1//EN" "http://www.w3.org/Graphics/SVG/1.1/DTD/svg11.dtd"><svg class="icon" width="200px" height="200.00px" viewBox="0 0 1024 1024" version="1.1" xmlns="http://www.w3.org/2000/svg"><path fill="#000000" d="M509.99 858.16c-27.47 0-55.08-12.94-95.33-44.67-35.26-27.8-80.26-69.76-150.18-135.55l-0.43-0.41c-64.28-63.42-108.49-124.13-131.42-180.44-19.28-47.36-17.98-78.41-17.48-90.1 0.03-0.8 0.07-1.46 0.07-1.98 0-1.84 0.26-46.01 22.66-96.64 26.58-60.06 73.3-103.83 135.09-126.58 42.9-15.79 86.5-19.06 129.56-9.72 30.96 6.72 60.82 19.7 88.75 38.6 11.34 7.67 27.15 7.52 38.47-0.37 52.91-36.88 113.06-50.43 178.78-40.28 50.18 7.75 100.33 36.21 137.59 78.08 39.74 44.65 61.62 100.38 61.62 156.92 0 51.89-18.48 106.08-54.91 161.05-29.26 44.14-64.52 81.16-95.27 112.39-54.11 54.95-177 148.98-189.98 158.87-5.94 5.3-26.03 20.83-57.59 20.83zM298.96 641.73c122.63 115.4 178.26 166.43 211.03 166.43 14.97 0 23.75-7.6 23.83-7.67l1.21-1.21 1.36-1.03c1.32-1 132.11-100.59 185.54-154.86 47.46-48.21 135.81-137.93 135.81-238.36 0-96.52-81.1-173.88-156.84-185.58-52.59-8.12-100.55 2.6-142.55 31.88-28.34 19.75-66.55 20.06-95.08 0.77-38.02-25.72-98.91-50.65-173.03-23.37-49.49 18.22-85.37 51.83-106.64 99.89-17.88 40.41-18.38 76.07-18.38 76.42 0 1.29-0.05 2.58-0.12 4.07-0.37 8.72-1.34 31.87 13.84 69.14 20.33 49.92 60.71 104.93 120.02 163.48zM573.88 570.99c-6.19 0-12.36-2.28-17.17-6.83L438.43 452.37l-52.08 50.02c-9.96 9.56-25.78 9.25-35.35-0.71-9.56-9.96-9.24-25.78 0.71-35.35l69.26-66.52c9.62-9.24 24.8-9.3 34.49-0.14l118.99 112.47 56.05-49.47c10.35-9.14 26.15-8.15 35.29 2.2 9.14 10.35 8.15 26.15-2.2 35.29l-73.17 64.58c-4.73 4.18-10.63 6.25-16.54 6.25z" /></svg>